ModelForces
version=1
nRows=4
nColumns=103
inDegrees=no

This file contains the forces exerted on a model during a simulation.

A force is a generalized force, meaning that it can be either a force (N) or a torque (Nm).

Units are S.I. units (second, meters, Newtons, ...)
Angles are in degrees.

endheader
time	glut_med1_r	glut_med2_r	glut_med3_r	glut_min1_r	glut_min2_r	glut_min3_r	semimem_r	semiten_r	bifemlh_r	bifemsh_r	sar_r	add_long_r	add_brev_r	add_mag1_r	add_mag2_r	add_mag3_r	tfl_r	pect_r	grac_r	glut_max1_r	glut_max2_r	glut_max3_r	iliacus_r	psoas_r	quad_fem_r	gem_r	peri_r	rect_fem_r	vas_med_r	vas_int_r	vas_lat_r	med_gas_r	lat_gas_r	soleus_r	tib_post_r	flex_dig_r	flex_hal_r	tib_ant_r	per_brev_r	per_long_r	per_tert_r	ext_dig_r	ext_hal_r	glut_med1_l	glut_med2_l	glut_med3_l	glut_min1_l	glut_min2_l	glut_min3_l	semimem_l	semiten_l	bifemlh_l	bifemsh_l	sar_l	add_long_l	add_brev_l	add_mag1_l	add_mag2_l	add_mag3_l	tfl_l	pect_l	grac_l	glut_max1_l	glut_max2_l	glut_max3_l	iliacus_l	psoas_l	quad_fem_l	gem_l	peri_l	rect_fem_l	vas_med_l	vas_int_l	vas_lat_l	med_gas_l	lat_gas_l	soleus_l	tib_post_l	flex_dig_l	flex_hal_l	tib_ant_l	per_brev_l	per_long_l	per_tert_l	ext_dig_l	ext_hal_l	ercspn_r	ercspn_l	intobl_r	intobl_l	extobl_r	extobl_l	aACL_R	pACL_R	aPCL_R	pPCL_R	aMCL_R	aLCL_R	aPCL_L	pPCL_L	aMCL_L	aLCL_L
      0.03597316	      0.00000000	      0.00000000	      0.00000000	     10.93792825	     15.70279393	      0.00000000	      0.00000000	     34.22033992	      0.00000000	     41.50060942	     37.48238753	     11.63863817	     10.57959779	      0.00000000	      0.00000000	      9.86225376	      0.00000000	      0.00000000	     34.64857045	      0.00000000	      0.00000000	     15.03115009	     36.57926328	     33.29951039	      0.00000000	      1.85462040	      0.00000000	      0.00000000	      0.00000000	      0.00000000	      0.00000000	      0.00000000	      0.00000000	      0.00000000	      7.41251266	      0.00000000	      0.00000000	      0.00000000	      2.38256759	     10.30261888	      7.57180303	     28.38186809	      8.87545727	      0.00000000	      0.00000000	      0.00000000	      0.00000000	      0.00000000	      0.00000000	      0.00000000	     11.01939397	      5.14160491	     14.26129181	      3.96061031	     17.01937503	     12.63390650	      0.00000000	      0.00000000	     10.88109822	      9.99475917	      0.00000000	      3.64758211	      0.00000000	      0.00000000	     18.52718867	     42.00439134	     37.91061826	      0.00000000	      9.61372827	      0.00000000	     24.95399005	      0.00000000	      0.00000000	      0.00000000	      0.00000000	      0.00000000	      0.00000000	     25.46657204	      0.00000000	      0.00000000	      0.00000000	      6.94534230	     19.96284831	      9.93581125	     10.91424806	      3.78577829	     88.19862936	     88.19862936	     33.30092125	     33.30092125	     50.64663996	     50.64663996	   -102.11058063	    145.88741503	      0.00000000	     42.06785958	      0.00000000	      0.00000000	      0.00000000	      0.00000000	    -25.50298872	      0.00000000
      0.03667468	      0.00000000	      0.00000000	      0.00000000	     12.16245618	     15.36037045	      0.00000000	      0.00000000	     33.63226272	      0.00000000	     41.04563967	     47.98644039	     11.62881013	     10.96886095	      0.00000000	      0.00000000	     10.44469297	      0.00000000	      0.00000000	     34.26302668	      0.00000000	      0.00000000	     16.03882234	     35.62432526	     32.24707884	      0.00000000	      1.88832229	      0.00000000	      0.00000000	      0.00000000	      0.00000000	      0.00000000	      0.00000000	      0.00000000	      0.00000000	      6.67812533	      0.00000000	      0.00000000	      0.00000000	      2.83193832	     10.38861321	     11.38277595	     28.66474358	      8.79354397	      0.00000000	      0.00000000	      0.00000000	      0.00000000	      1.54768898	      0.00000000	      0.00000000	     10.86395568	      5.78861232	     14.08601593	      3.92265493	     16.68942766	     12.40280753	      0.00000000	      0.00000000	     11.13256572	      9.76609993	      0.00000000	      3.60317531	      0.00000000	      0.00000000	     18.60434454	     41.62494039	     37.36368149	      0.00000000	      9.53997918	      0.00000000	     24.55650353	      0.00000000	      0.00000000	      0.00000000	      0.00000000	      0.00000000	      0.00000000	     26.28253121	      0.00000000	      0.00000000	      0.00000000	      6.60729424	     19.41030202	      9.82704378	     10.64677505	      3.69397342	     87.58503417	     87.58503417	     33.14454047	     33.14454047	     50.39934761	     50.39934761	      0.00000000	    156.20467019	    170.37995719	     35.50978324	      0.00000000	      0.00000000	      0.00000000	      0.00000000	    -26.06440373	      0.00000000
      0.03756983	      0.00000000	      0.00000000	      0.00000000	     12.36090493	     14.80449827	      0.00000000	      0.00000000	     33.24304608	      0.00000000	     41.33219354	     49.45425779	     11.69993323	     11.66603291	      0.00000000	      0.00000000	     11.22767658	      0.00000000	      0.00000000	     34.40772075	      0.00000000	      0.00000000	     17.53781418	     34.37316569	     30.88150114	      0.00000000	      1.96364436	      0.00000000	      0.00000000	      0.00000000	      0.00000000	      0.00000000	      0.00000000	      0.00000000	      0.00000000	      5.67250051	      0.00000000	      0.00000000	      0.00000000	      3.41067570	     10.54104441	     10.13434765	     28.63874311	      8.66298808	      0.00000000	      0.00000000	      0.00000000	      0.00000000	      4.00775666	      0.00000000	      0.00000000	     10.67757720	      6.54247380	     13.88089327	      3.88016523	     16.27490042	     12.10966942	      0.00000000	      0.00000000	     11.42109332	      9.48373062	      0.00000000	      3.55164556	      0.00000000	      0.00000000	     18.63989207	     41.15883554	     36.69167748	      0.00000000	      9.44548117	      0.00000000	     24.07553533	      0.00000000	      0.00000000	      0.00000000	      0.00000000	      0.00000000	      0.00000000	     27.34947885	      0.00000000	      0.00000000	      0.00000000	      6.16902914	     18.67685230	      9.69097785	     10.29499363	      3.57667430	     86.81127654	     86.81127654	     32.93938891	     32.93938891	     50.08854306	     50.08854306	      0.00000000	    154.74059274	    158.72873278	    -43.84329007	      0.00000000	      0.00000000	      0.00000000	      0.00000000	    -26.46030967	      0.00000000
      0.03912983	      0.00000000	      0.00000000	      0.00000000	     11.43737172	     13.78254233	      0.00000000	      0.00000000	     33.31750724	      0.00000000	     43.68109461	     48.90354690	     11.90409823	     12.80261631	      0.00000000	      0.00000000	     12.69134437	      0.00000000	      0.00000000	     35.14013459	      0.00000000	      0.00000000	     20.15901324	     32.19353119	     28.48803712	      0.00000000	      2.15299173	      0.00000000	      0.00000000	      0.00000000	      0.00000000	      0.00000000	      0.00000000	      0.00000000	      0.00000000	      3.88405608	      0.00000000	      0.00000000	      2.61579405	      4.36829914	     10.81662878	      2.13942185	     28.19913262	      8.39696339	      0.00000000	      0.00000000	      0.00000000	      0.00000000	      6.80383657	      0.00000000	      0.00000000	     10.38604337	      7.69583342	     13.57193474	      3.81757135	     15.58079975	     11.63542165	      0.00000000	      0.00000000	     11.84511222	      9.02082379	      0.00000000	      3.47379111	      0.00000000	      0.00000000	     18.57014853	     40.39322704	     35.58752902	      0.00000000	      9.28286222	      0.00000000	     23.30909679	      0.00000000	      0.00000000	      0.00000000	      0.00000000	      0.00000000	      0.00000000	     29.26376298	      0.07085687	      0.00000000	      0.00000000	      5.41951289	     17.36072450	      9.46720342	      9.66395670	      3.37188097	     85.48707898	     85.48707898	     32.56893398	     32.56893398	     49.55909842	     49.55909842	      0.00000000	    169.39940417	    175.53990627	    -79.86436853	      0.00000000	      0.00000000	      0.00000000	      0.00000000	    -26.56483516	      0.00000000
